<svg width="96" height="72" viewBox="0 0 96 72" fill="none" xmlns="http://www.w3.org/2000/svg">
<g clip-path="url(#clip0_770_19)">
<path d="M48 0C33.0356 0 19.6715 5.13609 10.8684 13.1855H85.1315C76.3284 5.13609 62.9644 0 48 0Z" fill="#EB252A"/>
<path d="M48 72C62.9138 72 76.2385 66.899 85.0425 58.8961H10.9575C19.7616 66.899 33.0863 72 48 72Z" fill="#EB252A"/>
<path d="M96 36C96 28.6074 93.0286 21.7359 87.9333 16.0191H8.06672C2.97141 21.7359 0 28.6074 0 36C0 43.4278 3 50.3297 8.13937 56.0625H87.8606C93 50.3297 96 43.4278 96 36Z" fill="#2D3990"/>
<path d="M85.1316 13.1855H10.8685C9.88717 14.0819 8.95206 15.0276 8.06679 16.0191H87.9334C87.0481 15.0276 86.113 14.0819 85.1316 13.1855Z" fill="white"/>
<path d="M87.8606 56.0625H8.13939C9.02994 57.0544 9.97054 58.0001 10.9575 58.8961H85.0425C86.0295 58.0001 86.9701 57.0544 87.8606 56.0625Z" fill="white"/>
<path d="M7.99921 18.586H31.9055V25.6641H24.0422V53.4141H15.9328V25.6641H7.99921V18.586Z" fill="white"/>
<path d="M36.0535 18.3984H48.3816C50.9828 18.3984 53.0913 19.1401 54.7069 20.6236C56.3225 22.107 57.1303 24.0667 57.1303 26.5026C57.1303 28.342 56.646 29.9247 55.6772 31.2506C54.7085 32.5765 53.2467 33.6453 51.2921 34.4569C54.0252 34.8556 56.071 35.7775 57.4294 37.2225C58.7878 38.6675 59.4672 40.6362 59.4675 43.1287C59.4675 46.1853 58.3614 48.615 56.1492 50.4178C53.9371 52.2206 50.9502 53.122 47.1886 53.122H36.0535V18.3984ZM44.1385 25.2558V31.7344H45.5156C47.3756 31.7344 48.8469 31.4247 49.9294 30.8053C51.0119 30.1859 51.5531 29.3303 51.5531 28.2384C51.5531 27.2453 51.1327 26.5 50.2917 26.0025C49.4508 25.505 48.1774 25.2562 46.4714 25.2562L44.1385 25.2558ZM44.1385 39.0703V45.5662H46.7813C48.0906 45.5662 49.1772 45.264 50.041 44.6597C50.9047 44.0553 51.3369 43.274 51.3375 42.3159C51.3375 41.3331 50.9011 40.5459 50.0283 39.9544C49.1555 39.3628 48.0731 39.0681 46.7813 39.0703H44.1385Z" fill="white"/>
<path d="M70.4897 18.4687H79.0997L88.8895 53.3981H79.462L78.2541 47.07L70.8947 47.0878L69.6633 53.4H60.7969L70.4897 18.4687ZM74.6175 28.0026L72.3539 39.6051L76.8234 39.569L74.6175 28.0026Z" fill="white"/>
</g>
<defs>
<clipPath id="clip0_770_19">
<rect width="96" height="72" fill="white"/>
</clipPath>
</defs>
</svg>
