<svg width="22" height="23" viewBox="0 0 22 23" fill="none" xmlns="http://www.w3.org/2000/svg">
<g clipPath="url(#clip0_2_33)">
<path d="M20.8202 3.90713C20.5624 3.58363 20.2396 3.32345 19.8747 3.14507C19.5099 2.96669 19.1119 2.87449 18.7092 2.875H3.8885L3.85 2.53863C3.77121 1.83944 3.44977 1.19479 2.94662 0.726875C2.44346 0.258964 1.79358 0.000327552 1.12017 0L0.916667 0C0.673551 0 0.440394 0.100967 0.268485 0.280689C0.0965771 0.460412 0 0.704168 0 0.958333C0 1.2125 0.0965771 1.45626 0.268485 1.63598C0.440394 1.8157 0.673551 1.91667 0.916667 1.91667H1.12017C1.34469 1.9167 1.56139 2.00287 1.72917 2.15885C1.89696 2.31483 2.00415 2.52976 2.03042 2.76288L3.29175 13.9754C3.4227 15.1415 3.9586 16.2167 4.79775 16.997C5.63689 17.7773 6.72087 18.2084 7.84392 18.2083H17.4167C17.6598 18.2083 17.8929 18.1074 18.0648 17.9276C18.2368 17.7479 18.3333 17.5042 18.3333 17.25C18.3333 16.9958 18.2368 16.7521 18.0648 16.5724C17.8929 16.3926 17.6598 16.2917 17.4167 16.2917H7.84392C7.27655 16.29 6.72357 16.1049 6.26077 15.7618C5.79798 15.4186 5.44804 14.9342 5.25892 14.375H16.1856C17.2602 14.3751 18.3006 13.9804 19.1252 13.2599C19.9497 12.5394 20.5059 11.539 20.6965 10.4334L21.4161 6.26079C21.4879 5.8468 21.4718 5.42136 21.3688 5.01461C21.2658 4.60787 21.0786 4.22977 20.8202 3.90713ZM19.6167 5.92058L18.8962 10.0932C18.7817 10.7573 18.4474 11.3582 17.9519 11.7906C17.4563 12.223 16.8311 12.4594 16.1856 12.4583H4.96742L4.10483 4.79167H18.7092C18.8438 4.79083 18.977 4.82101 19.0992 4.88008C19.2215 4.93914 19.3298 5.02564 19.4164 5.13342C19.503 5.24119 19.5659 5.3676 19.6005 5.50365C19.6351 5.6397 19.6406 5.78205 19.6167 5.92058Z" fill="black"/>
<path d="M6.41665 23C7.42917 23 8.24998 22.1419 8.24998 21.0833C8.24998 20.0248 7.42917 19.1667 6.41665 19.1667C5.40412 19.1667 4.58331 20.0248 4.58331 21.0833C4.58331 22.1419 5.40412 23 6.41665 23Z" fill="black"/>
<path d="M15.5833 23C16.5959 23 17.4167 22.1419 17.4167 21.0833C17.4167 20.0248 16.5959 19.1667 15.5833 19.1667C14.5708 19.1667 13.75 20.0248 13.75 21.0833C13.75 22.1419 14.5708 23 15.5833 23Z" fill="black"/>
</g>
<defs>
<clipPath id="clip0_2_33">
<rect width="22" height="23" fill="white"/>
</clipPath>
</defs>
</svg>
