<svg width="24" height="25" viewBox="0 0 24 25" fill="none" xmlns="http://www.w3.org/2000/svg">
<g clipPath="url(#clip0_2_27)">
<path d="M12 12.5C13.1867 12.5 14.3467 12.1334 15.3334 11.4467C16.3201 10.7599 17.0892 9.78381 17.5433 8.64177C17.9974 7.49974 18.1162 6.24307 17.8847 5.03069C17.6532 3.81831 17.0818 2.70466 16.2426 1.83059C15.4035 0.956507 14.3344 0.361252 13.1705 0.120095C12.0067 -0.121063 10.8003 0.00270804 9.7039 0.475756C8.60754 0.948803 7.67047 1.74988 7.01118 2.77769C6.35189 3.8055 6 5.01387 6 6.25C6.00159 7.9071 6.63424 9.49585 7.75911 10.6676C8.88399 11.8393 10.4092 12.4983 12 12.5ZM12 2.08334C12.7911 2.08334 13.5645 2.32771 14.2223 2.78555C14.8801 3.24339 15.3928 3.89413 15.6955 4.65549C15.9983 5.41685 16.0775 6.25462 15.9231 7.06288C15.7688 7.87113 15.3878 8.61356 14.8284 9.19628C14.269 9.779 13.5563 10.1758 12.7804 10.3366C12.0044 10.4974 11.2002 10.4149 10.4693 10.0995C9.73836 9.78414 9.11365 9.25008 8.67412 8.56488C8.2346 7.87967 8 7.07409 8 6.25C8 5.14493 8.42143 4.08513 9.17157 3.30372C9.92172 2.52232 10.9391 2.08334 12 2.08334Z" fill="black"/>
<path d="M12 14.5833C9.61386 14.5861 7.32622 15.5747 5.63896 17.3323C3.95171 19.0898 3.00265 21.4728 3 23.9583C3 24.2346 3.10536 24.4996 3.29289 24.6949C3.48043 24.8903 3.73478 25 4 25C4.26522 25 4.51957 24.8903 4.70711 24.6949C4.89464 24.4996 5 24.2346 5 23.9583C5 22.0245 5.7375 20.1698 7.05025 18.8024C8.36301 17.4349 10.1435 16.6667 12 16.6667C13.8565 16.6667 15.637 17.4349 16.9497 18.8024C18.2625 20.1698 19 22.0245 19 23.9583C19 24.2346 19.1054 24.4996 19.2929 24.6949C19.4804 24.8903 19.7348 25 20 25C20.2652 25 20.5196 24.8903 20.7071 24.6949C20.8946 24.4996 21 24.2346 21 23.9583C20.9974 21.4728 20.0483 19.0898 18.361 17.3323C16.6738 15.5747 14.3861 14.5861 12 14.5833Z" fill="black"/>
</g>
<defs>
<clipPath id="clip0_2_27">
<rect width="24" height="25" fill="white"/>
</clipPath>
</defs>
</svg>
